<mxfile host="app.diagrams.net" modified="2023-05-27T09:34:34.890Z" agent="Mozilla/5.0 (Windows NT 10.0; Win64; x64) AppleWebKit/537.36 (KHTML, like Gecko) Chrome/110.0.0.0 YaBrowser/23.3.4.603 Yowser/2.5 Safari/537.36" etag="AUKtCjKMM8TuGG_6revl" version="21.3.4" type="github">
  <diagram name="Страница 1" id="kjG9lB7ZpE4-tK7_RKbl">
    <mxGraphModel dx="1829" dy="569" grid="1" gridSize="10" guides="1" tooltips="1" connect="1" arrows="1" fold="1" page="1" pageScale="1" pageWidth="827" pageHeight="1169" math="0" shadow="0">
      <root>
        <mxCell id="0" />
        <mxCell id="1" parent="0" />
        <mxCell id="nSvpjmNpNfjdV9OC4rbj-11" value="" style="rounded=0;whiteSpace=wrap;html=1;" vertex="1" parent="1">
          <mxGeometry x="320" y="370" width="120" height="160" as="geometry" />
        </mxCell>
        <mxCell id="nSvpjmNpNfjdV9OC4rbj-12" value="" style="rounded=0;whiteSpace=wrap;html=1;" vertex="1" parent="1">
          <mxGeometry x="450" y="370" width="120" height="160" as="geometry" />
        </mxCell>
        <mxCell id="nSvpjmNpNfjdV9OC4rbj-13" value="" style="rounded=0;whiteSpace=wrap;html=1;" vertex="1" parent="1">
          <mxGeometry x="580" y="370" width="120" height="160" as="geometry" />
        </mxCell>
        <mxCell id="nSvpjmNpNfjdV9OC4rbj-10" value="" style="rounded=0;whiteSpace=wrap;html=1;" vertex="1" parent="1">
          <mxGeometry x="185" y="370" width="120" height="160" as="geometry" />
        </mxCell>
        <mxCell id="nSvpjmNpNfjdV9OC4rbj-8" value="" style="rounded=0;whiteSpace=wrap;html=1;" vertex="1" parent="1">
          <mxGeometry x="50" y="370" width="120" height="160" as="geometry" />
        </mxCell>
        <mxCell id="nSvpjmNpNfjdV9OC4rbj-25" style="edgeStyle=orthogonalEdgeStyle;rounded=0;orthogonalLoop=1;jettySize=auto;html=1;exitX=0;exitY=0.5;exitDx=0;exitDy=0;entryX=0.25;entryY=0;entryDx=0;entryDy=0;" edge="1" parent="1" source="nSvpjmNpNfjdV9OC4rbj-3" target="nSvpjmNpNfjdV9OC4rbj-8">
          <mxGeometry relative="1" as="geometry" />
        </mxCell>
        <mxCell id="nSvpjmNpNfjdV9OC4rbj-26" style="edgeStyle=orthogonalEdgeStyle;rounded=0;orthogonalLoop=1;jettySize=auto;html=1;exitX=0.5;exitY=1;exitDx=0;exitDy=0;entryX=0.25;entryY=0;entryDx=0;entryDy=0;" edge="1" parent="1" source="nSvpjmNpNfjdV9OC4rbj-3" target="nSvpjmNpNfjdV9OC4rbj-11">
          <mxGeometry relative="1" as="geometry">
            <Array as="points">
              <mxPoint x="350" y="230" />
            </Array>
          </mxGeometry>
        </mxCell>
        <mxCell id="nSvpjmNpNfjdV9OC4rbj-31" style="edgeStyle=orthogonalEdgeStyle;rounded=0;orthogonalLoop=1;jettySize=auto;html=1;exitX=1;exitY=0.5;exitDx=0;exitDy=0;entryX=0.123;entryY=0.004;entryDx=0;entryDy=0;entryPerimeter=0;" edge="1" parent="1" source="nSvpjmNpNfjdV9OC4rbj-3" target="nSvpjmNpNfjdV9OC4rbj-13">
          <mxGeometry relative="1" as="geometry" />
        </mxCell>
        <mxCell id="nSvpjmNpNfjdV9OC4rbj-3" value="getNoteList&lt;br&gt;UserCase" style="ellipse;whiteSpace=wrap;html=1;" vertex="1" parent="1">
          <mxGeometry x="300" y="170" width="90" height="60" as="geometry" />
        </mxCell>
        <mxCell id="nSvpjmNpNfjdV9OC4rbj-23" style="edgeStyle=orthogonalEdgeStyle;rounded=0;orthogonalLoop=1;jettySize=auto;html=1;exitX=0.5;exitY=1;exitDx=0;exitDy=0;entryX=0.382;entryY=-0.001;entryDx=0;entryDy=0;entryPerimeter=0;" edge="1" parent="1" source="nSvpjmNpNfjdV9OC4rbj-4" target="nSvpjmNpNfjdV9OC4rbj-10">
          <mxGeometry relative="1" as="geometry" />
        </mxCell>
        <mxCell id="nSvpjmNpNfjdV9OC4rbj-24" style="edgeStyle=orthogonalEdgeStyle;rounded=0;orthogonalLoop=1;jettySize=auto;html=1;exitX=0;exitY=1;exitDx=0;exitDy=0;entryX=0.75;entryY=0;entryDx=0;entryDy=0;" edge="1" parent="1" source="nSvpjmNpNfjdV9OC4rbj-4" target="nSvpjmNpNfjdV9OC4rbj-8">
          <mxGeometry relative="1" as="geometry" />
        </mxCell>
        <mxCell id="nSvpjmNpNfjdV9OC4rbj-4" value="createArchive&lt;br&gt;UserCase" style="ellipse;whiteSpace=wrap;html=1;" vertex="1" parent="1">
          <mxGeometry x="150" y="240" width="90" height="60" as="geometry" />
        </mxCell>
        <mxCell id="nSvpjmNpNfjdV9OC4rbj-27" style="edgeStyle=orthogonalEdgeStyle;rounded=0;orthogonalLoop=1;jettySize=auto;html=1;exitX=0;exitY=1;exitDx=0;exitDy=0;entryX=0.75;entryY=0;entryDx=0;entryDy=0;" edge="1" parent="1" source="nSvpjmNpNfjdV9OC4rbj-5" target="nSvpjmNpNfjdV9OC4rbj-11">
          <mxGeometry relative="1" as="geometry" />
        </mxCell>
        <mxCell id="nSvpjmNpNfjdV9OC4rbj-28" style="edgeStyle=orthogonalEdgeStyle;rounded=0;orthogonalLoop=1;jettySize=auto;html=1;exitX=1;exitY=1;exitDx=0;exitDy=0;entryX=0.25;entryY=0;entryDx=0;entryDy=0;" edge="1" parent="1" source="nSvpjmNpNfjdV9OC4rbj-5" target="nSvpjmNpNfjdV9OC4rbj-12">
          <mxGeometry relative="1" as="geometry" />
        </mxCell>
        <mxCell id="nSvpjmNpNfjdV9OC4rbj-5" value="createNote&lt;br&gt;UserCase" style="ellipse;whiteSpace=wrap;html=1;" vertex="1" parent="1">
          <mxGeometry x="414" y="250" width="90" height="60" as="geometry" />
        </mxCell>
        <mxCell id="nSvpjmNpNfjdV9OC4rbj-30" style="edgeStyle=orthogonalEdgeStyle;rounded=0;orthogonalLoop=1;jettySize=auto;html=1;exitX=1;exitY=1;exitDx=0;exitDy=0;entryX=0.75;entryY=0;entryDx=0;entryDy=0;" edge="1" parent="1" source="nSvpjmNpNfjdV9OC4rbj-6" target="nSvpjmNpNfjdV9OC4rbj-13">
          <mxGeometry relative="1" as="geometry" />
        </mxCell>
        <mxCell id="nSvpjmNpNfjdV9OC4rbj-6" value="ReadNote&lt;br&gt;UserCase" style="ellipse;whiteSpace=wrap;html=1;" vertex="1" parent="1">
          <mxGeometry x="610" y="200" width="90" height="60" as="geometry" />
        </mxCell>
        <mxCell id="nSvpjmNpNfjdV9OC4rbj-29" style="edgeStyle=orthogonalEdgeStyle;rounded=0;orthogonalLoop=1;jettySize=auto;html=1;exitX=0.5;exitY=1;exitDx=0;exitDy=0;entryX=0.877;entryY=-0.016;entryDx=0;entryDy=0;entryPerimeter=0;" edge="1" parent="1" source="nSvpjmNpNfjdV9OC4rbj-7" target="nSvpjmNpNfjdV9OC4rbj-13">
          <mxGeometry relative="1" as="geometry" />
        </mxCell>
        <mxCell id="nSvpjmNpNfjdV9OC4rbj-7" value="WriteNote&lt;br&gt;UserCase" style="ellipse;whiteSpace=wrap;html=1;" vertex="1" parent="1">
          <mxGeometry x="700" y="230" width="90" height="60" as="geometry" />
        </mxCell>
        <mxCell id="nSvpjmNpNfjdV9OC4rbj-33" style="edgeStyle=orthogonalEdgeStyle;rounded=0;orthogonalLoop=1;jettySize=auto;html=1;exitX=0.5;exitY=1;exitDx=0;exitDy=0;entryX=0;entryY=0.5;entryDx=0;entryDy=0;" edge="1" parent="1" source="nSvpjmNpNfjdV9OC4rbj-32" target="nSvpjmNpNfjdV9OC4rbj-8">
          <mxGeometry relative="1" as="geometry" />
        </mxCell>
        <mxCell id="nSvpjmNpNfjdV9OC4rbj-32" value="Exit&lt;br&gt;UserCase" style="ellipse;whiteSpace=wrap;html=1;" vertex="1" parent="1">
          <mxGeometry x="-70" y="270" width="90" height="60" as="geometry" />
        </mxCell>
        <mxCell id="nSvpjmNpNfjdV9OC4rbj-35" style="edgeStyle=orthogonalEdgeStyle;rounded=0;orthogonalLoop=1;jettySize=auto;html=1;exitX=1;exitY=0;exitDx=0;exitDy=0;entryX=0.5;entryY=1;entryDx=0;entryDy=0;" edge="1" parent="1" source="nSvpjmNpNfjdV9OC4rbj-34" target="nSvpjmNpNfjdV9OC4rbj-10">
          <mxGeometry relative="1" as="geometry" />
        </mxCell>
        <mxCell id="nSvpjmNpNfjdV9OC4rbj-36" style="edgeStyle=orthogonalEdgeStyle;rounded=0;orthogonalLoop=1;jettySize=auto;html=1;exitX=0;exitY=0;exitDx=0;exitDy=0;entryX=0.5;entryY=1;entryDx=0;entryDy=0;" edge="1" parent="1" source="nSvpjmNpNfjdV9OC4rbj-34" target="nSvpjmNpNfjdV9OC4rbj-8">
          <mxGeometry relative="1" as="geometry" />
        </mxCell>
        <mxCell id="nSvpjmNpNfjdV9OC4rbj-34" value="ReturnLastMenu&lt;br&gt;UserCase" style="ellipse;whiteSpace=wrap;html=1;" vertex="1" parent="1">
          <mxGeometry x="140" y="610" width="110" height="70" as="geometry" />
        </mxCell>
        <mxCell id="nSvpjmNpNfjdV9OC4rbj-38" style="edgeStyle=orthogonalEdgeStyle;rounded=0;orthogonalLoop=1;jettySize=auto;html=1;exitX=1;exitY=0;exitDx=0;exitDy=0;entryX=0.5;entryY=1;entryDx=0;entryDy=0;" edge="1" parent="1" source="nSvpjmNpNfjdV9OC4rbj-37" target="nSvpjmNpNfjdV9OC4rbj-12">
          <mxGeometry relative="1" as="geometry" />
        </mxCell>
        <mxCell id="nSvpjmNpNfjdV9OC4rbj-39" style="edgeStyle=orthogonalEdgeStyle;rounded=0;orthogonalLoop=1;jettySize=auto;html=1;exitX=0;exitY=0;exitDx=0;exitDy=0;entryX=0.75;entryY=1;entryDx=0;entryDy=0;" edge="1" parent="1" source="nSvpjmNpNfjdV9OC4rbj-37" target="nSvpjmNpNfjdV9OC4rbj-11">
          <mxGeometry relative="1" as="geometry" />
        </mxCell>
        <mxCell id="nSvpjmNpNfjdV9OC4rbj-37" value="ReturnLastMenu&lt;br&gt;UserCase" style="ellipse;whiteSpace=wrap;html=1;" vertex="1" parent="1">
          <mxGeometry x="404" y="590" width="110" height="70" as="geometry" />
        </mxCell>
      </root>
    </mxGraphModel>
  </diagram>
</mxfile>
